<svg viewBox="0 0 800 100" xmlns="http://www.w3.org/2000/svg" xmlns:xlink="http://www.w3.org/1999/xlink" xmlns:figma="http://www.figma.com/figma/ns">
<defs id="SvgjsDefs1313"></defs>
<g id="SvgjsG1314" featurekey="root" fill="#ffffff"></g>
<g id="SvgjsG1315" featurekey="symbol1" fill="#000000" transform="matrix(0.9126466208896391,0,0,0.9126466208896391,-1.134288600780069,-0.2216419798904301)">
<path fill-rule="evenodd" clip-rule="evenodd" d="M28.7,60.4c-0.7-0.7-0.7-2,0-2.7l8.6-8.6c0.7-0.7,2-0.7,2.7,0s0.7,2,0,2.7  l-8.6,8.6C30.7,61.1,29.4,61.1,28.7,60.4z"></path>
<path fill-rule="evenodd" clip-rule="evenodd" d="M37.3,51.8l-8.6-8.6c-0.7-0.7-0.7-2,0-2.7c0.7-0.7,2-0.7,2.7,0l8.6,8.6  c0.7,0.7,0.7,2,0,2.7S38,52.5,37.3,51.8z"></path>
<path fill-rule="evenodd" clip-rule="evenodd" d="M47.3,59.1c0-1.1,0.9-1.9,1.9-1.9h12.1c1.1,0,1.9,0.9,1.9,1.9S62.4,61,61.4,61  H49.2C48.2,61,47.3,60.1,47.3,59.1z"></path>
<path fill-rule="evenodd" clip-rule="evenodd" d="M85.6,11.2H15.4c-1.8,0-3.2,1.4-3.2,3.2v70.3c0,1.8,1.4,3.2,3.2,3.2h70.3  c1.8,0,3.2-1.4,3.2-3.2V14.4C88.8,12.6,87.4,11.2,85.6,11.2z M21.8,17.6c1.8,0,3.2,1.4,3.2,3.2s-1.4,3.2-3.2,3.2s-3.2-1.4-3.2-3.2  S20,17.6,21.8,17.6z M82.4,79.8c0,0.9-0.7,1.6-1.6,1.6H20.2c-0.9,0-1.6-0.7-1.6-1.6V31.9c0-0.9,0.7-1.6,1.6-1.6h60.7  c0.9,0,1.6,0.7,1.6,1.6V79.8z"></path>
</g>
<g id="SvgjsG1316" featurekey="text1" fill="#000000" transform="matrix(3.049143335698417,0,0,3.049143335698417,97.15770976062252,-16.474270992055647)"><path d="M8.4576 16.7798 c1.4068 0.64407 2.2881 1.9324 2.2881 3.4408 c0 2.2373 -1.9661 3.7795 -4.0508 3.7795 l-5.4746 0 c-0.16949 0 -0.28814 -0.11864 -0.28814 -0.28814 l0 -13 c0 -0.15254 0.10169 -0.27119 0.27119 -0.27119 l5.051 0 c2.1524 0 3.7625 1.8814 3.7625 3.5763 c0 1.2373 -0.66102 2.2034 -1.5593 2.7627 z M5.8814 16.2207 c2.8136 0 2.8644 -3.9322 0.033898 -3.9322 l-3.0678 0 l0 3.9322 l3.0339 0 z M6.2542 22.1529 c3.322 0 3.339 -4.1356 -0.033898 -4.1356 l-3.3729 0 l0.016949 4.1356 l3.3898 0 z M28.18606779661017 10.441 c0.15254 0 0.27168 0.11881 0.27168 0.28847 l0 12.983 c0 0.15254 -0.10169 0.28797 -0.27136 0.28797 l-1.339 0 c-0.18644 0 -0.28814 -0.11864 -0.28814 -0.28814 l0 -9.339 l-5.5254 9.0339 c-0.084746 0.13559 -0.16949 0.20339 -0.30508 0.20339 l-0.08458 0 c-0.13559 0 -0.22034 -0.067797 -0.30508 -0.20339 l-5.5085 -9.0339 l0 9.339 c0 0.15254 -0.11881 0.28797 -0.28831 0.28797 l-1.339 0 c-0.16949 0 -0.28831 -0.11864 -0.28831 -0.28814 l0 -13 c0 -0.15254 0.10186 -0.27119 0.27119 -0.27119 l1.1525 0 c0.15254 0 0.25424 0.050847 0.33898 0.18644 l6.0169 9.8307 l6.0168 -9.8307 c0.067797 -0.13559 0.16949 -0.18644 0.33898 -0.18644 l1.1356 0 z M42.389813559322036 21.5764 c0.13559 0.11864 0.13576 0.27136 -0.016784 0.42373 c-1.2542 1.3222 -2.9661 2.1186 -5 2.1186 c-3.7627 0 -6.8814 -3.0168 -6.8814 -6.8642 s3.1186 -6.9322 6.8814 -6.9322 c2 0 3.7625 0.79661 5.0337 2.1356 c0.15254 0.15238 0.15254 0.30492 0.016949 0.40661 l-1.0847 0.88119 c-0.13559 0.11881 -0.25424 0.11881 -0.38983 -0.016784 c-0.72881 -0.76271 -1.9831 -1.5593 -3.5085 -1.5593 c-3.0508 0 -5.0339 2.5424 -5.0339 5.0847 c0 2.5593 1.9831 5.0169 5.0339 5.0169 c1.5085 0 2.7288 -0.76271 3.4576 -1.5085 c0.13559 -0.15254 0.27119 -0.16933 0.40678 -0.067797 z M55.966084745762714 21.5764 c0.13559 0.11864 0.13576 0.27136 -0.016784 0.42373 c-1.2542 1.3222 -2.9661 2.1186 -5 2.1186 c-3.7627 0 -6.8814 -3.0168 -6.8814 -6.8642 s3.1186 -6.9322 6.8814 -6.9322 c2 0 3.7625 0.79661 5.0337 2.1356 c0.15254 0.15238 0.15254 0.30492 0.016949 0.40661 l-1.0847 0.88119 c-0.13559 0.11881 -0.25424 0.11881 -0.38983 -0.016784 c-0.72881 -0.76271 -1.9831 -1.5593 -3.5085 -1.5593 c-3.0508 0 -5.0339 2.5424 -5.0339 5.0847 c0 2.5593 1.9831 5.0169 5.0339 5.0169 c1.5085 0 2.7288 -0.76271 3.4576 -1.5085 c0.13559 -0.15254 0.27119 -0.16933 0.40678 -0.067797 z  M68.01677288135593 10.441 c2.9492 0 4.6442 2.4915 4.6442 4.5424 c0 2.1695 -1.6949 4.5763 -4.6441 4.5763 l-3.3729 0 l0 4.1525 c0 0.18644 -0.10153 0.28797 -0.27119 0.28797 l-1.3729 0 c-0.16949 0 -0.27119 -0.10153 -0.27119 -0.28797 l0 -13 c0 -0.15254 0.10169 -0.27119 0.27119 -0.27119 l5.0168 0 z M67.86457288135593 17.712 c1.8644 0 2.8983 -1.3729 2.8983 -2.7288 c0 -1.339 -1.0339 -2.6949 -2.8983 -2.6949 l-3.2203 0 l0 5.4237 l3.2203 0 z M80.11849152542372 16.0341 c0.18644 0.11864 0.23729 0.22017 0.11848 0.40661 l-0.69475 1.0169 c-0.084746 0.11864 -0.20339 0.15254 -0.35593 0.11864 c-0.35593 -0.16949 -0.66102 -0.32203 -1.2203 -0.32203 s-1.4407 0.23729 -1.9153 1.2881 l0 5.1866 c0 0.15238 -0.10169 0.27102 -0.25424 0.27102 l-1.339 0 c-0.15254 0 -0.25424 -0.11864 -0.25424 -0.27102 l0 -7.8476 c0 -0.15238 0.11864 -0.27119 0.25424 -0.27119 l0.9322 0 c0.40678 0 0.66102 0.42373 0.66102 0.72881 l0 0.11881 c0.59322 -0.54237 1.3051 -0.91525 2.2373 -0.91525 c0.86441 0 1.5085 0.27119 1.8305 0.49153 z M85.67781694915254 24.11864 c2.3729 0 4.339 -1.8812 4.339 -4.3049 c0 -2.4746 -1.9661 -4.322 -4.339 -4.322 s-4.339 1.8475 -4.339 4.322 c0 2.4237 1.9661 4.3049 4.339 4.3049 z M85.67781694915254 22.39 c-1.4576 0 -2.5424 -1.2034 -2.5424 -2.5593 c0 -1.4068 1.0847 -2.6102 2.5424 -2.6102 s2.5424 1.2034 2.5424 2.6102 c0 1.3559 -1.0847 2.5593 -2.5424 2.5593 z M97.27121525423729 24.20339 c1.8981 0.23729 3.3225 0.71186 3.2547 2.5932 c-0.050847 1.9831 -1.8983 3.2034 -4.8475 3.2034 c-2.339 0 -4 -0.98305 -3.9661 -2.7966 c0.016949 -1 0.64407 -1.6949 1.8305 -1.9322 c-1.1017 -0.18644 -2.2542 -0.83051 -2.2881 -1.9151 c-0.033898 -0.98305 0.76271 -1.678 2.0847 -1.4914 c-0.59322 -0.30525 -1.322 -1.3222 -1.339 -2.4578 c-0.050847 -2.2034 1.6271 -3.8812 3.7797 -3.8812 c1.339 0 1.7288 0.28797 3.8644 0.22017 c0.15254 0 0.27119 0.084746 0.27119 0.25407 l-0.067797 0.86475 c-0.16949 0.15238 -0.69492 0.16933 -1.0678 0.20322 c0.76271 0.69492 0.91525 1.5424 0.91525 2.3559 c0 2.2203 -1.7292 3.678 -3.7631 3.6102 c-0.81356 -0.033898 -1.3898 -0.25407 -1.7629 -0.38966 c-0.6778 -0.16949 -1.1356 0.033898 -1.1186 0.45763 c0.033898 0.42373 0.61017 0.6439 1.5254 0.76271 c1.1525 0.15221 2.0169 0.2539 2.6949 0.33864 z M95.86511525423728 17.2712 c-1.1525 0 -2.0678 0.88136 -2.0678 2.0508 c0 1.0508 0.9322 1.9661 2.0508 1.9661 c1.2542 0.016949 2.0339 -0.86441 2.0507 -1.9661 c-0.016784 -1.1695 -0.89814 -2.0508 -2.0337 -2.0508 z M95.86511525423728 28.3049 c1.4237 0 2.661 -0.45746 2.6949 -1.4236 c0.016949 -0.52542 -0.35593 -0.81356 -1.2373 -0.98305 c-0.64407 -0.11881 -1.4915 -0.23746 -2.4068 -0.33915 c-0.66102 -0.084746 -1.339 0.45763 -1.3559 1.2881 c-0.033898 1.1017 1 1.4576 2.3051 1.4576 z M108.0167966101695 16.0341 c0.18644 0.11864 0.23729 0.22017 0.11848 0.40661 l-0.69475 1.0169 c-0.084746 0.11864 -0.20339 0.15254 -0.35593 0.11864 c-0.35593 -0.16949 -0.66102 -0.32203 -1.2203 -0.32203 s-1.4407 0.23729 -1.9153 1.2881 l0 5.1866 c0 0.15238 -0.10169 0.27102 -0.25424 0.27102 l-1.339 0 c-0.15254 0 -0.25424 -0.11864 -0.25424 -0.27102 l0 -7.8476 c0 -0.15238 0.11864 -0.27119 0.25424 -0.27119 l0.9322 0 c0.40678 0 0.66102 0.42373 0.66102 0.72881 l0 0.11881 c0.59322 -0.54237 1.3051 -0.91525 2.2373 -0.91525 c0.86441 0 1.5085 0.27119 1.8305 0.49153 z M116.79642203389831 23.62712 c-0.22034 -1.661 -0.2368 -3.2032 -0.16916 -4.8302 c0.084746 -2 -1.0169 -3.2881 -3.0847 -3.2881 c-1.3559 0 -2.7627 0.40678 -3.5932 0.86441 c-0.15254 0.084746 -0.25424 0.23712 -0.18644 0.38966 l0.42373 0.98305 c0.067797 0.16949 0.18644 0.22034 0.40678 0.11864 c1.0847 -0.49153 1.9661 -0.72881 2.8305 -0.72881 c0.91525 0 1.4576 0.35593 1.4237 1.322 c-3.1356 0.5422 -5.5254 1.1015 -5.5254 3.3049 c0 1.4746 1.0678 2.3219 2.7966 2.3219 c1.4408 0 2.1864 -0.44051 2.8983 -0.98288 c0.08458 0.50847 0.23712 0.89831 0.5761 0.89831 l1.0169 0 c0.15238 0 0.20322 -0.18644 0.18627 -0.37288 z M112.44082203389831 22.627299999999998 c-0.69492 0 -1.2373 -0.23729 -1.2373 -0.88136 c0 -1.0339 1.8981 -1.3729 3.6102 -1.7288 c-0.016949 0.55932 -0.016949 1.3051 0 1.7966 c-0.55932 0.42373 -1.5085 0.81356 -2.3729 0.81356 z M133.15281355932203 23.64424 c0.050847 0.18644 -0.016784 0.3561 -0.16916 0.3561 l-1.1017 0 c-0.42373 0 -0.66102 -0.28797 -0.66102 -0.6778 l0 -4.4237 c0 -1.1017 -0.77966 -1.7458 -1.8983 -1.7458 c-0.9661 0 -1.7797 0.55932 -2.4746 1.2542 c0.016784 0.10169 0.016784 0.20339 0.016784 0.3222 l0 3.7456 c0.016949 0.47458 0.050847 0.83051 0.10169 1.1695 c0.033898 0.18644 -0.016949 0.35576 -0.16949 0.35576 l-1.1017 0 c-0.44068 0 -0.66102 -0.28797 -0.66102 -0.6778 l0 -4.4237 c0 -1.1017 -0.77966 -1.7458 -1.8985 -1.7458 c-0.96593 0 -1.7795 0.54237 -2.4575 1.2373 l0 5.339 c0 0.15238 -0.11864 0.27102 -0.27119 0.27102 l-1.322 0 c-0.15254 0 -0.25424 -0.11864 -0.25424 -0.27102 l0 -7.8476 c0 -0.15238 0.10169 -0.27119 0.25424 -0.27119 l0.91525 0 c0.40678 0 0.66102 0.42373 0.67797 0.72881 l0 0.16949 c0.66102 -0.50864 1.5424 -1 2.6949 -1 c1.1695 0 2.339 0.49136 2.9831 1.4405 c0.67797 -0.62712 1.7288 -1.4407 3.2203 -1.4407 c1.7458 0 3.4914 1.1017 3.4914 3.2205 l0 3.7456 c0 0.47458 0.050847 0.83051 0.084746 1.1695 z M149.44094915254237 23.64424 c0.050847 0.18644 -0.016784 0.3561 -0.16916 0.3561 l-1.1017 0 c-0.42373 0 -0.66102 -0.28797 -0.66102 -0.6778 l0 -4.4237 c0 -1.1017 -0.77966 -1.7458 -1.8983 -1.7458 c-0.9661 0 -1.7797 0.55932 -2.4746 1.2542 c0.016784 0.10169 0.016784 0.20339 0.016784 0.3222 l0 3.7456 c0.016949 0.47458 0.050847 0.83051 0.10169 1.1695 c0.033898 0.18644 -0.016949 0.35576 -0.16949 0.35576 l-1.1017 0 c-0.44068 0 -0.66102 -0.28797 -0.66102 -0.6778 l0 -4.4237 c0 -1.1017 -0.77966 -1.7458 -1.8985 -1.7458 c-0.96593 0 -1.7795 0.54237 -2.4575 1.2373 l0 5.339 c0 0.15238 -0.11864 0.27102 -0.27119 0.27102 l-1.322 0 c-0.15254 0 -0.25424 -0.11864 -0.25424 -0.27102 l0 -7.8476 c0 -0.15238 0.10169 -0.27119 0.25424 -0.27119 l0.91525 0 c0.40678 0 0.66102 0.42373 0.67797 0.72881 l0 0.16949 c0.66102 -0.50864 1.5424 -1 2.6949 -1 c1.1695 0 2.339 0.49136 2.9831 1.4405 c0.67797 -0.62712 1.7288 -1.4407 3.2203 -1.4407 c1.7458 0 3.4914 1.1017 3.4914 3.2205 l0 3.7456 c0 0.47458 0.050847 0.83051 0.084746 1.1695 z M152.50828474576272 12.492 c-0.55915 0 -1.0168 -0.44068 -1.0168 -1.0169 c0 -0.55932 0.45763 -1.0169 1.0168 -1.0169 c0.55932 0 1.0169 0.45763 1.0169 1.0169 c0 0.57627 -0.45763 1.0169 -1.0169 1.0169 z M153.16928474576272 15.6102 l-1.3051 0 c-0.16949 0 -0.27119 0.11881 -0.27119 0.27119 l0 7.4407 c0 0.38983 0.23729 0.6778 0.64407 0.6778 l0.94915 0 c0.15254 0 0.25424 -0.10153 0.25424 -0.28797 l0 -7.8305 c0 -0.15238 -0.11864 -0.27119 -0.27119 -0.27119 z M163.86426440677965 23.64424 c0.033898 0.18644 -0.016784 0.35576 -0.16916 0.35576 l-1.1017 0 c-0.44068 0 -0.66102 -0.28797 -0.66102 -0.6778 l0 -4.4068 c0 -1.1186 -0.77966 -1.7627 -1.8983 -1.7627 c-0.9661 0 -1.7797 0.45763 -2.4575 1.1186 l0 5.4578 c0 0.15238 -0.11864 0.27102 -0.27119 0.27102 l-1.3222 0 c-0.15238 0 -0.25407 -0.11864 -0.25407 -0.27102 l0 -7.8476 c0 -0.15238 0.10169 -0.27119 0.25407 -0.27119 l0.91525 0 c0.40678 0 0.66102 0.42373 0.67797 0.72881 l0 0.16949 c0.66102 -0.50864 1.5422 -1.0171 2.6947 -1.0171 c1.7458 0 3.4915 1.1019 3.4915 3.2205 l0 3.7627 c0.016784 0.47458 0.050681 0.83051 0.10153 1.1695 z M171.30511355932202 24.20339 c1.8981 0.23729 3.3225 0.71186 3.2547 2.5932 c-0.050847 1.9831 -1.8983 3.2034 -4.8475 3.2034 c-2.339 0 -4 -0.98305 -3.9661 -2.7966 c0.016949 -1 0.64407 -1.6949 1.8305 -1.9322 c-1.1017 -0.18644 -2.2542 -0.83051 -2.2881 -1.9151 c-0.033898 -0.98305 0.76271 -1.678 2.0847 -1.4914 c-0.59322 -0.30525 -1.322 -1.3222 -1.339 -2.4578 c-0.050847 -2.2034 1.6271 -3.8812 3.7797 -3.8812 c1.339 0 1.7288 0.28797 3.8644 0.22017 c0.15254 0 0.27119 0.084746 0.27119 0.25407 l-0.067797 0.86475 c-0.16949 0.15238 -0.69492 0.16933 -1.0678 0.20322 c0.76271 0.69492 0.91525 1.5424 0.91525 2.3559 c0 2.2203 -1.7292 3.678 -3.7631 3.6102 c-0.81356 -0.033898 -1.3898 -0.25407 -1.7629 -0.38966 c-0.6778 -0.16949 -1.1356 0.033898 -1.1186 0.45763 c0.033898 0.42373 0.61017 0.6439 1.5254 0.76271 c1.1525 0.15221 2.0169 0.2539 2.6949 0.33864 z M169.89901355932201 17.2712 c-1.1525 0 -2.0678 0.88136 -2.0678 2.0508 c0 1.0508 0.9322 1.9661 2.0508 1.9661 c1.2542 0.016949 2.0339 -0.86441 2.0507 -1.9661 c-0.016784 -1.1695 -0.89814 -2.0508 -2.0337 -2.0508 z M169.89901355932201 28.3049 c1.4237 0 2.661 -0.45746 2.6949 -1.4236 c0.016949 -0.52542 -0.35593 -0.81356 -1.2373 -0.98305 c-0.64407 -0.11881 -1.4915 -0.23746 -2.4068 -0.33915 c-0.66102 -0.084746 -1.339 0.45763 -1.3559 1.2881 c-0.033898 1.1017 1 1.4576 2.3051 1.4576 z  M192.42371186440678 21.5764 c0.13559 0.11864 0.13576 0.27136 -0.016784 0.42373 c-1.2542 1.3222 -2.9661 2.1186 -5 2.1186 c-3.7627 0 -6.8814 -3.0168 -6.8814 -6.8642 s3.1186 -6.9322 6.8814 -6.9322 c2 0 3.7625 0.79661 5.0337 2.1356 c0.15254 0.15238 0.15254 0.30492 0.016949 0.40661 l-1.0847 0.88119 c-0.13559 0.11881 -0.25424 0.11881 -0.38983 -0.016784 c-0.72881 -0.76271 -1.9831 -1.5593 -3.5085 -1.5593 c-3.0508 0 -5.0339 2.5424 -5.0339 5.0847 c0 2.5593 1.9831 5.0169 5.0339 5.0169 c1.5085 0 2.7288 -0.76271 3.4576 -1.5085 c0.13559 -0.15254 0.27119 -0.16933 0.40678 -0.067797 z M196.18648305084744 10.441 l-1.3053 0 c-0.16933 0 -0.27119 0.11864 -0.27119 0.27119 l0 12.61 c0 0.38983 0.23746 0.6778 0.66119 0.6778 l0.91525 0 c0.16949 0 0.27119 -0.10153 0.27119 -0.28797 l0 -13 c0 -0.15254 -0.11864 -0.27119 -0.27119 -0.27119 z M206.38981694915253 15.6102 c0.15254 0 0.25424 0.11881 0.25424 0.28831 l0 7.8305 c0 0.15238 -0.10169 0.27102 -0.23729 0.27102 l-1.0508 0 c-0.28814 0 -0.52542 -0.42356 -0.54237 -0.71169 l0 -0.18644 c-0.66102 0.50847 -1.5593 0.99983 -2.7119 0.99983 c-1.7458 0 -3.4915 -1.1015 -3.4915 -3.2202 l0 -3.7458 c0 -0.45763 -0.033898 -0.81356 -0.084746 -1.1695 c-0.033898 -0.18644 0.016949 -0.35593 0.16949 -0.35593 l1.1017 0 c0.42373 0 0.66102 0.28814 0.66102 0.67797 l0 4.4237 c0 1.1186 0.76271 1.7458 1.8983 1.7458 c0.9661 0 1.7627 -0.54237 2.4576 -1.2373 l0 -5.322 c0 -0.16949 0.10169 -0.28831 0.25407 -0.28831 l1.3222 0 z M212.93207118644065 15.5256 c1.9831 0 3.8812 1.6273 3.8812 4.1697 c0 2.4746 -1.5424 4.4064 -3.9322 4.4064 c-0.91525 0 -1.6949 -0.30475 -2.3049 -0.72847 c-0.084746 0.40678 -0.54237 0.62695 -0.88136 0.62695 l-0.67797 0 c-0.15254 0 -0.27119 -0.11864 -0.27119 -0.27102 l0 -11.831 c0 -0.52542 -0.084746 -0.79661 -0.13559 -1.1017 c-0.033732 -0.18661 0.017115 -0.3561 0.18661 -0.3561 l1.1525 0 c0.38983 0 0.64407 0.25424 0.64407 0.61017 l0 5.1356 c0.57627 -0.35593 1.3219 -0.66102 2.3388 -0.66102 z M212.59287118644068 22.3903 c1.3729 0 2.4068 -1.0169 2.4068 -2.6949 c0 -1.7288 -1.2712 -2.4576 -2.339 -2.4576 c-0.76271 0 -1.4576 0.27119 -2.0678 0.66102 l0 3.9322 c0.54237 0.30508 1.1864 0.55932 2 0.55932 z"></path></g></svg>